<svg width="18" height="11" viewBox="0 0 18 11" fill="none" xmlns="http://www.w3.org/2000/svg">
<path d="M8.29764 0.287475L0.287559 8.2977C0.102146 8.48297 2.20004e-08 8.73028 1.88557e-08 8.99399C1.5711e-08 9.25769 0.102146 9.50501 0.287559 9.69028L0.87731 10.2802C1.2616 10.664 1.88618 10.664 2.26988 10.2802L8.99627 3.55379L15.7301 10.2876C15.9155 10.4729 16.1627 10.5752 16.4263 10.5752C16.6901 10.5752 16.9373 10.4729 17.1228 10.2876L17.7124 9.69774C17.8979 9.51233 18 9.26516 18 9.00145C18 8.73775 17.8979 8.49043 17.7124 8.30517L9.69504 0.287475C9.50904 0.101769 9.26071 -0.000230679 8.99671 0.000354874C8.73169 -0.000230685 8.48349 0.101769 8.29764 0.287475Z" fill="#FF611D"/>
</svg>
