<svg width="32" height="32" viewBox="0 0 32 32" fill="none" xmlns="http://www.w3.org/2000/svg">
<g opacity="0.7" clip-path="url(#clip0)">
<path d="M25.6666 0H6.33329C4.31063 0 2.66663 1.644 2.66663 3.66667V28.3333C2.66663 30.356 4.31063 32 6.33329 32H25.6666C27.6893 32 29.3333 30.356 29.3333 28.3333V3.66667C29.3333 1.644 27.6893 0 25.6666 0ZM13.04 24.96C13.4306 25.3507 13.4306 25.984 13.04 26.3747C12.8453 26.5693 12.5893 26.6667 12.3333 26.6667C12.0773 26.6667 11.8213 26.5693 11.6266 26.3733L10.6666 25.4147L9.70663 26.3747C9.51196 26.5693 9.25596 26.6667 8.99996 26.6667C8.74396 26.6667 8.48796 26.5693 8.29329 26.3733C7.90263 25.9827 7.90263 25.3493 8.29329 24.9587L9.25196 24L8.29196 23.04C7.90129 22.6493 7.90129 22.016 8.29196 21.6253C8.68263 21.2347 9.31596 21.2347 9.70663 21.6253L10.6666 22.5853L11.6266 21.6253C12.0173 21.2347 12.6506 21.2347 13.0413 21.6253C13.432 22.016 13.432 22.6493 13.0413 23.04L12.0813 24L13.04 24.96ZM12.3333 17H11.6666V17.6667C11.6666 18.2187 11.2186 18.6667 10.6666 18.6667C10.1146 18.6667 9.66663 18.2187 9.66663 17.6667V17H8.99996C8.44796 17 7.99996 16.552 7.99996 16C7.99996 15.448 8.44796 15 8.99996 15H9.66663V14.3333C9.66663 13.7813 10.1146 13.3333 10.6666 13.3333C11.2186 13.3333 11.6666 13.7813 11.6666 14.3333V15H12.3333C12.8853 15 13.3333 15.448 13.3333 16C13.3333 16.552 12.8853 17 12.3333 17ZM23 26.6667H19.6666C19.1146 26.6667 18.6666 26.2187 18.6666 25.6667C18.6666 25.1147 19.1146 24.6667 19.6666 24.6667H23C23.552 24.6667 24 25.1147 24 25.6667C24 26.2187 23.552 26.6667 23 26.6667ZM23 23.3333H19.6666C19.1146 23.3333 18.6666 22.8853 18.6666 22.3333C18.6666 21.7813 19.1146 21.3333 19.6666 21.3333H23C23.552 21.3333 24 21.7813 24 22.3333C24 22.8853 23.552 23.3333 23 23.3333ZM23 17.3333H19.6666C19.1146 17.3333 18.6666 16.8853 18.6666 16.3333C18.6666 15.7813 19.1146 15.3333 19.6666 15.3333H23C23.552 15.3333 24 15.7813 24 16.3333C24 16.8853 23.552 17.3333 23 17.3333ZM25.3333 8.33333C25.3333 9.62 24.2866 10.6667 23 10.6667H8.99996C7.71329 10.6667 6.66663 9.62 6.66663 8.33333V6.33333C6.66663 5.04667 7.71329 4 8.99996 4H23C24.2866 4 25.3333 5.04667 25.3333 6.33333V8.33333Z" fill="white"/>
</g>
<defs>
<clipPath id="clip0">
<rect width="32" height="32" fill="white"/>
</clipPath>
</defs>
</svg>
