<svg width="32" height="32" viewBox="0 0 32 32" fill="none" xmlns="http://www.w3.org/2000/svg">
<g clip-path="url(#clip0)">
<g opacity="0.95">
<path d="M16 0C15.4822 0 15.0625 0.41975 15.0625 0.9375V6.9625C15.0625 7.48025 15.4822 7.9 16 7.9C16.5178 7.9 16.9375 7.48025 16.9375 6.9625V0.9375C16.9375 0.41975 16.5178 0 16 0Z" fill="black"/>
</g>
<g opacity="0.4">
<path d="M16 24.1005C15.4822 24.1005 15.0625 24.5202 15.0625 25.038V31.0629C15.0625 31.5807 15.4822 32.0004 16 32.0004C16.5178 32.0004 16.9375 31.5807 16.9375 31.0629V25.038C16.9375 24.5202 16.5178 24.1005 16 24.1005Z" fill="black"/>
</g>
<g opacity="0.02">
<path d="M12.2933 7.70461L9.28075 2.4868C9.02188 2.03836 8.44857 1.88461 8.00013 2.14367C7.55175 2.40255 7.39813 2.97586 7.657 3.4243L10.6695 8.64211C10.8431 8.94292 11.1583 9.11105 11.4823 9.11105C11.6413 9.11105 11.8025 9.07055 11.9501 8.98524C12.3986 8.72636 12.5521 8.15305 12.2933 7.70461Z" fill="black"/>
</g>
<g opacity="0.5">
<path d="M24.3433 28.5756L21.3308 23.3579C21.072 22.9095 20.4986 22.7557 20.0502 23.0148C19.6018 23.2736 19.4481 23.847 19.7071 24.2954L22.7195 29.5131C22.8931 29.8139 23.2083 29.982 23.5323 29.982C23.6913 29.982 23.8526 29.9415 24.0001 29.8562C24.4485 29.5973 24.6022 29.024 24.3433 28.5756Z" fill="black"/>
</g>
<g opacity="0.05">
<path d="M8.64208 10.6697L3.4242 7.6571C2.97583 7.39804 2.40245 7.55179 2.14358 8.00023C1.8847 8.4486 2.03833 9.02198 2.4867 9.28085L7.70458 12.2935C7.8522 12.3787 8.01339 12.4193 8.17245 12.4193C8.49645 12.4193 8.81158 12.2511 8.9852 11.9504C9.24408 11.502 9.09045 10.9286 8.64208 10.6697Z" fill="black"/>
</g>
<g opacity="0.6">
<path d="M29.5133 22.7191L24.2956 19.7068C23.847 19.4477 23.2737 19.6015 23.0149 20.0499C22.7561 20.4983 22.9096 21.0717 23.3581 21.3305L28.5758 24.3429C28.7234 24.4281 28.8845 24.4687 29.0436 24.4687C29.3677 24.4687 29.6828 24.3005 29.8564 23.9998C30.1153 23.5513 29.9617 22.9779 29.5133 22.7191Z" fill="black"/>
</g>
<g opacity="0.1">
<path d="M6.96256 15.0626H0.9375C0.41975 15.0626 0 15.4824 0 16.0001C0 16.5179 0.41975 16.9376 0.9375 16.9376H6.96256C7.48031 16.9376 7.90006 16.5179 7.90006 16.0001C7.90006 15.4824 7.48031 15.0626 6.96256 15.0626Z" fill="black"/>
</g>
<g opacity="0.7">
<path d="M31.0625 15.0626H25.0376C24.5198 15.0626 24.1001 15.4824 24.1001 16.0001C24.1001 16.5179 24.5198 16.9376 25.0376 16.9376H31.0625C31.5802 16.9376 32 16.5179 32 16.0001C32 15.4824 31.5802 15.0626 31.0625 15.0626Z" fill="black"/>
</g>
<g opacity="0.2">
<path d="M8.98521 20.0497C8.7264 19.6012 8.15308 19.4475 7.70458 19.7065L2.4867 22.719C2.03833 22.9779 1.8847 23.5512 2.14358 23.9997C2.3172 24.3005 2.63233 24.4686 2.95633 24.4686C3.11539 24.4686 3.27658 24.4281 3.4242 24.3428L8.64208 21.3303C9.09046 21.0714 9.24408 20.4981 8.98521 20.0497Z" fill="black"/>
</g>
<g opacity="0.8">
<path d="M29.8564 7.99996C29.5975 7.55152 29.0242 7.39783 28.5758 7.65683L23.358 10.6693C22.9096 10.9282 22.7561 11.5015 23.0149 11.95C23.1885 12.2508 23.5036 12.4189 23.8277 12.4189C23.9867 12.4189 24.1479 12.3784 24.2955 12.2931L29.5133 9.28058C29.9617 9.02171 30.1153 8.44833 29.8564 7.99996Z" fill="black"/>
</g>
<g opacity="0.3">
<path d="M11.9501 23.0148C11.5017 22.7557 10.9283 22.9095 10.6695 23.3579L7.657 28.5757C7.39813 29.0241 7.55175 29.5975 8.00013 29.8563C8.14775 29.9416 8.30894 29.9821 8.468 29.9821C8.792 29.9821 9.10719 29.8139 9.28075 29.5132L12.2933 24.2954C12.5521 23.847 12.3986 23.2736 11.9501 23.0148Z" fill="black"/>
</g>
<g opacity="0.9">
<path d="M24.0001 2.14381C23.5517 1.88475 22.9783 2.03843 22.7195 2.48694L19.7071 7.70463C19.4481 8.15294 19.6018 8.72632 20.0502 8.98525C20.1978 9.0705 20.359 9.11107 20.5181 9.11107C20.8421 9.11107 21.1572 8.94294 21.3308 8.64213L24.3433 3.42444C24.6022 2.97606 24.4485 2.40268 24.0001 2.14381Z" fill="black"/>
</g>
</g>
<defs>
<clipPath id="clip0">
<rect width="32" height="32" fill="white"/>
</clipPath>
</defs>
</svg>
