<svg width="114" height="58" viewBox="0 0 114 58" fill="none" xmlns="http://www.w3.org/2000/svg">
<path fill-rule="evenodd" clip-rule="evenodd" d="M5.83204 28.9838C1.81865 28.6125 0 30.4191 0 30.4191C0 30.4191 0.713552 21.8175 7.69037 21.4267C7.96247 20.7501 8.27202 20.089 8.61699 19.4462C5.22052 17.6639 2.89234 18.475 2.6825 18.5481L2.68084 18.5486C2.7889 18.3321 6.74733 10.903 13.265 13.156C13.7815 12.6408 14.3147 12.1504 14.8754 11.6869C12.3041 8.60367 9.70937 8.60582 9.70937 8.60582C9.70937 8.60582 16.352 3.02891 21.5732 7.644C22.2522 7.35509 22.9434 7.1116 23.6411 6.8909C22.4579 3.07313 20.0595 2.08753 20.0595 2.08753C20.0595 2.08753 28.3418 -0.545119 31.3869 5.69893C32.1086 5.68847 32.8425 5.72342 33.5834 5.78126C33.958 1.80282 32.1355 0 32.1355 0C32.1355 0 40.8131 0.707431 41.2074 7.62351C41.8895 7.89314 42.5564 8.2 43.2048 8.54197C45.0028 5.17509 44.1846 2.8672 44.1108 2.65915L44.1103 2.6575C44.3287 2.76462 51.823 6.68859 49.5503 13.1495C50.07 13.6615 50.5646 14.1901 51.0322 14.7459C54.1426 12.197 54.1404 9.62483 54.1404 9.62483C54.1404 9.62483 59.7663 16.2097 55.1107 21.3854C55.4021 22.0585 55.6477 22.7436 55.8704 23.4353C59.7217 22.2624 60.7164 19.885 60.7164 19.885C60.7164 19.885 63.3717 28.095 57.0728 31.1137C57.0834 31.829 57.0481 32.5565 56.9898 33.291C61.0032 33.6624 62.8223 31.8558 62.8223 31.8558C62.8223 31.8558 62.2137 39.1869 56.6309 40.6208H10.9979L9.42492 50.294C8.72565 51.5689 8.67666 52.5203 8.67329 52.6374C8.40793 52.3266 3.17661 45.9482 7.71113 40.8895C7.4196 40.2169 7.17406 39.5312 6.95142 38.8395C3.1108 40.0146 2.11608 42.392 2.11608 42.392C2.11608 42.392 -0.5479 34.1697 5.74899 31.1612C5.73843 30.4458 5.77369 29.7183 5.83204 28.9838Z" fill="#FF611D"/>
<path d="M24.1088 37.1904L25.2685 32.0339C25.5262 30.8415 25.784 29.8102 26.0095 27.7798C26.1061 29.4235 26.1705 30.6159 26.2672 32.0017L26.6215 37.1904H30.5196L28.78 22.7845H24.592L23.239 28.8756C23.0134 29.8746 22.8202 31.2604 22.6913 32.2917C22.5624 31.2604 22.3691 29.8746 22.1436 28.8756L20.7906 22.7845H16.6026L14.863 37.1904H18.7933L19.1154 32.0017C19.2121 30.9382 19.3087 28.7467 19.4053 27.7798C19.5342 29.0367 19.7597 30.6159 20.1141 32.0017L21.306 37.1904H24.1088Z" fill="white"/>
<path d="M42.7186 30.0036C42.7186 26.394 41.591 22.5267 37.3064 22.5267C33.1829 22.5267 31.8298 26.5229 31.8298 30.0036C31.8298 33.4842 33.1829 37.4804 37.3064 37.4804C41.5588 37.4804 42.7186 33.5164 42.7186 30.0036ZM38.6595 30.0036C38.6595 30.8737 38.5628 33.8709 37.3064 33.8709C35.9856 33.8709 35.889 30.9382 35.889 30.0036C35.889 29.0689 35.9856 26.1362 37.3064 26.1362C38.5628 26.1362 38.6595 29.1334 38.6595 30.0036Z" fill="white"/>
<path d="M51.9837 33.2908C51.5971 33.5809 51.2105 33.7098 50.7917 33.7098C48.8266 33.7098 48.5045 31.3894 48.5045 29.8746C48.5045 28.4244 48.9233 25.9751 50.8562 25.9751C51.275 25.9751 51.6616 26.1362 51.9837 26.4585V22.9134C51.2428 22.6234 50.7273 22.4944 49.9541 22.4944C45.7662 22.4944 44.4454 26.6841 44.4454 30.1647C44.4454 33.3875 45.8306 37.4804 49.6964 37.4804C50.5662 37.4804 51.1783 37.3193 51.9837 36.9648V33.2908Z" fill="white"/>
<path d="M12.9686 57.7176H16.616L17.1987 52.9163H18.8173C21.1266 52.9163 22.8099 52.3515 23.8243 51.2435C24.7955 50.179 24.9465 48.8755 24.9465 47.8327C24.9465 46.8768 24.8386 45.5516 23.738 44.5088C22.6373 43.4443 21.1913 43.227 19.5511 43.227H14.7383L12.9686 57.7176ZM19.0331 46.2685C19.5511 46.2685 20.3064 46.2468 20.8028 46.7465C21.0402 46.9854 21.2129 47.3547 21.2129 47.9848C21.2129 48.3106 21.1697 48.8538 20.7597 49.2665C20.177 49.8531 19.2489 49.8748 18.731 49.8748H17.5871L18.0188 46.2685H19.0331Z" fill="#333333"/>
<path d="M27.1942 43.227L25.4245 57.7176H29.0719H33.4746L33.863 54.524H29.4603L29.7625 52.0039H33.863L34.2515 48.832H30.151L30.4531 46.4206H34.6831L35.0716 43.227H27.1942Z" fill="#333333"/>
<path d="M38.5282 47.2027C38.8951 46.9202 39.4778 46.5292 39.8447 46.3554C39.9958 46.2902 40.6217 45.9861 41.5065 45.9861C42.0029 45.9861 42.6072 46.073 42.9309 46.3337C43.1683 46.5292 43.3626 46.8551 43.3626 47.2678C43.3626 47.7241 43.1467 48.1586 42.823 48.4193C42.2187 48.8972 40.9886 48.9407 40.5785 48.9407H39.6505L39.2836 51.8518H40.449C40.9454 51.8518 41.8303 51.8953 42.2835 52.1342C42.7799 52.3949 42.9525 52.786 42.9525 53.2205C42.9525 53.6767 42.8014 54.0243 42.4993 54.3067C42.0892 54.6543 41.5065 54.8281 40.9022 54.8281C40.1469 54.8281 39.4347 54.6326 38.7656 54.2633C38.2477 53.9374 37.6434 53.4595 37.2333 53.0901L35.2694 55.7406C35.9384 56.262 36.8664 56.892 37.7081 57.3048C38.8951 57.8479 39.8663 58 40.967 58C42.5425 58 44.269 57.761 45.5855 56.3923C46.384 55.5451 46.8372 54.4371 46.8372 53.1553C46.8372 52.3515 46.6214 51.6346 46.0171 51.048C45.6502 50.7004 45.1323 50.3962 44.528 50.2442L44.5496 50.179C45.0459 50.0269 45.6718 49.701 46.2114 48.9841C46.6214 48.441 46.9667 47.6589 46.9667 46.6378C46.9667 45.5081 46.5351 44.7043 46.0171 44.1829C45.3913 43.5529 44.2906 42.9446 42.3051 42.9446C41.2907 42.9446 40.3627 43.0967 39.3483 43.466C38.6793 43.705 37.9239 44.096 37.2981 44.5088L38.5282 47.2027Z" fill="#333333"/>
<path d="M50.3989 43.227L48.6292 57.7176H52.2765L53.0751 51.1783C53.3556 51.7649 53.7441 52.5036 54.1541 53.0901L57.2403 57.7176H61.6215L56.7008 50.6135L62.2042 43.227H58.0173L53.2693 49.5707L54.0462 43.227H50.3989Z" fill="#333333"/>
<path d="M72.1938 55.2844L72.7981 57.7176H76.6181L73.1434 43.227H69.0429L61.8993 57.7176H65.9567L67.0574 55.2844H72.1938ZM69.8414 49.1796C70.0788 48.68 70.2515 48.2237 70.4889 47.4634C70.5105 47.7023 70.5536 47.8761 70.5752 47.9848C70.6399 48.4193 70.6615 48.5496 70.8989 49.6576L71.5032 52.4167H68.3954L69.8414 49.1796Z" fill="#333333"/>
<path d="M80.1211 53.5898C78.9773 53.5898 77.9845 54.5674 77.9845 55.784C77.9845 57.0006 78.9988 58 80.2074 58C81.3944 58 82.3656 57.0224 82.3656 55.7623C82.3656 54.5674 81.3944 53.5898 80.1211 53.5898Z" fill="#333333"/>
<path d="M84.7534 57.7176H88.4008L88.9835 52.9163H90.6021C92.9114 52.9163 94.5947 52.3515 95.6091 51.2435C96.5803 50.179 96.7313 48.8755 96.7313 47.8327C96.7313 46.8768 96.6234 45.5516 95.5228 44.5088C94.4221 43.4443 92.9761 43.227 91.3359 43.227H86.5231L84.7534 57.7176ZM90.8179 46.2685C91.3359 46.2685 92.0913 46.2468 92.5876 46.7465C92.825 46.9854 92.9977 47.3547 92.9977 47.9848C92.9977 48.3106 92.9545 48.8538 92.5445 49.2665C91.9618 49.8531 91.0337 49.8748 90.5158 49.8748H89.3719L89.8036 46.2685H90.8179Z" fill="#333333"/>
<path d="M102.821 57.7176H106.468L106.705 55.6971H106.835C108.626 55.6971 110.741 55.5451 112.317 54.0243C113.331 53.0467 114 51.4825 114 49.5707C114 47.7458 113.309 46.5509 112.619 45.834C111.518 44.726 109.619 44.096 108.13 44.096L108.346 41.9887H104.698L104.482 44.096C101.871 44.096 100.08 44.7695 98.9359 45.8775C97.9 46.8985 97.1662 48.4193 97.1662 50.3311C97.1662 51.8953 97.7273 53.177 98.569 54.046C99.5402 55.0671 101.094 55.6971 102.972 55.6971H103.058L102.821 57.7176ZM107.547 47.0071H107.633C108.561 47.0071 109.252 47.2678 109.662 47.6806C110.266 48.2672 110.331 49.0058 110.331 49.5055C110.331 50.4397 110.094 51.3521 109.317 52.0256C108.561 52.6991 107.698 52.786 107.029 52.786H106.835L107.547 47.0071ZM104.375 47.0071L103.662 52.786H103.468C102.583 52.786 101.914 52.4818 101.547 52.1342C101.116 51.7215 100.835 50.9828 100.835 50.2224C100.835 49.4403 101.094 48.5279 101.677 47.9196C102.432 47.1375 103.425 47.0071 104.202 47.0071H104.375Z" fill="#333333"/>
</svg>
