<svg width="114" height="59" viewBox="0 0 114 59" fill="none" xmlns="http://www.w3.org/2000/svg">
<path fill-rule="evenodd" clip-rule="evenodd" d="M5.83204 29.0186C1.81865 28.6473 0 30.4539 0 30.4539C0 30.4539 0.713552 21.8524 7.69037 21.4615C7.96247 20.785 8.27202 20.1238 8.61699 19.4811C5.22053 17.6988 2.89236 18.5099 2.6825 18.583L2.68084 18.5835C2.7889 18.367 6.74733 10.938 13.265 13.191C13.7815 12.6758 14.3147 12.1854 14.8754 11.7219C12.3041 8.63871 9.70937 8.64086 9.70937 8.64086C9.70937 8.64086 16.3521 3.06402 21.5732 7.67905C22.2522 7.39015 22.9434 7.14666 23.6412 6.92596C22.4579 3.10825 20.0595 2.12266 20.0595 2.12266C20.0595 2.12266 28.3418 -0.509955 31.3869 5.73401C32.1086 5.72355 32.8425 5.7585 33.5834 5.81634C33.958 1.83795 32.1355 0.0351562 32.1355 0.0351562C32.1355 0.0351562 40.8131 0.742577 41.2074 7.65856C41.8895 7.92819 42.5564 8.23504 43.2048 8.57701C45.0028 5.21013 44.1846 2.90224 44.1108 2.69426L44.1103 2.69262C44.3287 2.79973 51.823 6.72365 49.5503 13.1845C50.07 13.6964 50.5646 14.225 51.0322 14.7808C54.1426 12.232 54.1404 9.65986 54.1404 9.65986C54.1404 9.65986 59.7663 16.2446 55.1107 21.4203C55.4021 22.0933 55.6477 22.7785 55.8704 23.4701C59.7217 22.2972 60.7164 19.9198 60.7164 19.9198C60.7164 19.9198 63.3717 28.1298 57.0728 31.1484C57.0834 31.8638 57.0481 32.5912 56.9898 33.3257C61.0032 33.697 62.8223 31.8905 62.8223 31.8905C62.8223 31.8905 62.2136 39.2228 56.6294 40.6558H10.9979L9.42501 50.3283C8.72566 51.6032 8.67666 52.5547 8.67329 52.6719C8.40793 52.361 3.17661 45.9827 7.71114 40.924C7.4196 40.2514 7.17406 39.5658 6.95142 38.8741C3.1108 40.0492 2.11608 42.4265 2.11608 42.4265C2.11608 42.4265 -0.5479 34.2044 5.74899 31.1959C5.73843 30.4805 5.77369 29.753 5.83204 29.0186Z" fill="#FF611D"/>
<path d="M24.1088 37.225L25.2685 32.0686C25.5262 30.8762 25.784 29.8449 26.0095 27.8146C26.1061 29.4582 26.1705 30.6506 26.2672 32.0364L26.6215 37.225H30.5196L28.78 22.8193H24.592L23.239 28.9103C23.0134 29.9094 22.8202 31.2952 22.6913 32.3265C22.5624 31.2952 22.3691 29.9094 22.1436 28.9103L20.7906 22.8193H16.6026L14.863 37.225H18.7933L19.1154 32.0364C19.2121 30.9729 19.3087 28.7814 19.4053 27.8146C19.5342 29.0715 19.7597 30.6506 20.1141 32.0364L21.306 37.225H24.1088Z" fill="white"/>
<path d="M42.7186 30.0383C42.7186 26.4288 41.591 22.5615 37.3064 22.5615C33.1829 22.5615 31.8298 26.5577 31.8298 30.0383C31.8298 33.5189 33.1829 37.5151 37.3064 37.5151C41.5588 37.5151 42.7186 33.5511 42.7186 30.0383ZM38.6595 30.0383C38.6595 30.9084 38.5628 33.9056 37.3064 33.9056C35.9856 33.9056 35.889 30.9729 35.889 30.0383C35.889 29.1037 35.9856 26.171 37.3064 26.171C38.5628 26.171 38.6595 29.1682 38.6595 30.0383Z" fill="white"/>
<path d="M51.9837 33.3255C51.5971 33.6156 51.2105 33.7445 50.7917 33.7445C48.8266 33.7445 48.5045 31.4241 48.5045 29.9094C48.5045 28.4592 48.9233 26.0099 50.8562 26.0099C51.275 26.0099 51.6616 26.171 51.9837 26.4933V22.9483C51.2428 22.6582 50.7273 22.5293 49.9541 22.5293C45.7662 22.5293 44.4454 26.7189 44.4454 30.1994C44.4454 33.4222 45.8306 37.5151 49.6964 37.5151C50.5662 37.5151 51.1783 37.354 51.9837 36.9994V33.3255Z" fill="white"/>
<path d="M12.9686 57.7531H16.616L17.1987 52.9519H18.8173C21.1266 52.9519 22.8099 52.3871 23.8243 51.2791C24.7955 50.2146 24.9465 48.9111 24.9465 47.8684C24.9465 46.9125 24.8386 45.5873 23.738 44.5445C22.6373 43.48 21.1913 43.2627 19.5511 43.2627H14.7383L12.9686 57.7531ZM19.0331 46.3042C19.5511 46.3042 20.3064 46.2825 20.8028 46.7821C21.0402 47.0211 21.2129 47.3904 21.2129 48.0204C21.2129 48.3463 21.1697 48.8894 20.7597 49.3022C20.177 49.8888 19.2489 49.9105 18.731 49.9105H17.5871L18.0188 46.3042H19.0331Z" fill="white"/>
<path d="M27.1942 43.2627L25.4245 57.7531H29.0719H33.4746L33.863 54.5596H29.4603L29.7625 52.0395H33.863L34.2515 48.8677H30.151L30.4531 46.4562H34.6831L35.0716 43.2627H27.1942Z" fill="white"/>
<path d="M38.5282 47.2383C38.8951 46.9559 39.4778 46.5649 39.8447 46.3911C39.9958 46.3259 40.6217 46.0218 41.5065 46.0218C42.0029 46.0218 42.6072 46.1087 42.9309 46.3694C43.1683 46.5649 43.3626 46.8907 43.3626 47.3035C43.3626 47.7597 43.1467 48.1942 42.823 48.4549C42.2187 48.9329 40.9886 48.9763 40.5785 48.9763H39.6505L39.2836 51.8874H40.449C40.9454 51.8874 41.8303 51.9309 42.2835 52.1698C42.7799 52.4305 42.9525 52.8216 42.9525 53.2561C42.9525 53.7123 42.8014 54.0599 42.4993 54.3423C42.0892 54.6899 41.5065 54.8637 40.9022 54.8637C40.1469 54.8637 39.4347 54.6682 38.7656 54.2989C38.2477 53.973 37.6434 53.495 37.2333 53.1257L35.2694 55.7761C35.9384 56.2975 36.8664 56.9275 37.7081 57.3403C38.8951 57.8834 39.8663 58.0355 40.967 58.0355C42.5425 58.0355 44.269 57.7965 45.5855 56.4279C46.384 55.5806 46.8372 54.4727 46.8372 53.1909C46.8372 52.3871 46.6214 51.6702 46.0171 51.0836C45.6502 50.736 45.1323 50.4319 44.528 50.2798L44.5496 50.2146C45.0459 50.0625 45.6718 49.7367 46.2114 49.0198C46.6214 48.4766 46.9667 47.6946 46.9667 46.6735C46.9667 45.5438 46.5351 44.74 46.0171 44.2186C45.3913 43.5886 44.2906 42.9803 42.3051 42.9803C41.2907 42.9803 40.3627 43.1324 39.3483 43.5017C38.6793 43.7407 37.9239 44.1317 37.2981 44.5445L38.5282 47.2383Z" fill="white"/>
<path d="M50.3989 43.2627L48.6292 57.7531H52.2765L53.0751 51.214C53.3556 51.8005 53.7441 52.5392 54.1541 53.1257L57.2403 57.7531H61.6215L56.7008 50.6491L62.2042 43.2627H58.0173L53.2693 49.6063L54.0462 43.2627H50.3989Z" fill="white"/>
<path d="M72.1938 55.3199L72.7981 57.7531H76.6181L73.1434 43.2627H69.0429L61.8993 57.7531H65.9567L67.0574 55.3199H72.1938ZM69.8414 49.2153C70.0788 48.7156 70.2515 48.2594 70.4889 47.499C70.5105 47.738 70.5536 47.9118 70.5752 48.0204C70.6399 48.4549 70.6615 48.5853 70.8989 49.6932L71.5032 52.4523H68.3954L69.8414 49.2153Z" fill="white"/>
<path d="M80.1211 53.6254C78.9773 53.6254 77.9845 54.603 77.9845 55.8196C77.9845 57.0362 78.9988 58.0355 80.2074 58.0355C81.3944 58.0355 82.3656 57.0579 82.3656 55.7979C82.3656 54.603 81.3944 53.6254 80.1211 53.6254Z" fill="white"/>
<path d="M84.7534 57.7531H88.4008L88.9835 52.9519H90.6021C92.9114 52.9519 94.5947 52.3871 95.6091 51.2791C96.5803 50.2146 96.7313 48.9111 96.7313 47.8684C96.7313 46.9125 96.6234 45.5873 95.5228 44.5445C94.4221 43.48 92.9761 43.2627 91.3359 43.2627H86.5231L84.7534 57.7531ZM90.8179 46.3042C91.3359 46.3042 92.0913 46.2825 92.5876 46.7821C92.825 47.0211 92.9977 47.3904 92.9977 48.0204C92.9977 48.3463 92.9545 48.8894 92.5445 49.3022C91.9618 49.8888 91.0337 49.9105 90.5158 49.9105H89.3719L89.8036 46.3042H90.8179Z" fill="white"/>
<path d="M102.821 57.7531H106.468L106.705 55.7327H106.835C108.626 55.7327 110.741 55.5806 112.317 54.0599C113.331 53.0823 114 51.5181 114 49.6063C114 47.7815 113.309 46.5866 112.619 45.8697C111.518 44.7617 109.619 44.1317 108.13 44.1317L108.346 42.0244H104.698L104.482 44.1317C101.871 44.1317 100.08 44.8052 98.9359 45.9131C97.9 46.9342 97.1662 48.4549 97.1662 50.3667C97.1662 51.9309 97.7273 53.2126 98.569 54.0816C99.5402 55.1027 101.094 55.7327 102.972 55.7327H103.058L102.821 57.7531ZM107.547 47.0428H107.633C108.561 47.0428 109.252 47.3035 109.662 47.7163C110.266 48.3028 110.331 49.0415 110.331 49.5412C110.331 50.4753 110.094 51.3878 109.317 52.0612C108.561 52.7347 107.698 52.8216 107.029 52.8216H106.835L107.547 47.0428ZM104.375 47.0428L103.662 52.8216H103.468C102.583 52.8216 101.914 52.5174 101.547 52.1698C101.116 51.7571 100.835 51.0184 100.835 50.2581C100.835 49.476 101.094 48.5635 101.677 47.9553C102.432 47.1732 103.425 47.0428 104.202 47.0428H104.375Z" fill="white"/>
</svg>
