<svg width="94" height="49" viewBox="0 0 94 49" fill="none" xmlns="http://www.w3.org/2000/svg">
<path d="M7.95198 0.223999H3.44398L0.307983 19.824H3.13598L3.66798 16.268H7.44798L7.97998 19.824H11.088L7.95198 0.223999ZM5.54398 3.696L7.02798 13.608H4.05998L5.54398 3.696Z" fill="#494949"/>
<path d="M18.4583 6.132C18.4583 7.7 17.7583 8.204 16.6103 8.204H15.6863V11.004H16.4423C17.8423 11.004 18.4583 11.676 18.4583 13.496V15.036C18.4583 16.772 17.8423 17.248 16.8623 17.248C15.8823 17.248 15.2663 16.716 15.2663 15.316V12.964H12.3543V15.12C12.3543 18.256 13.9223 20.048 16.9463 20.048C19.9703 20.048 21.5383 18.256 21.5383 15.12V13.58C21.5383 11.592 20.9223 10.136 19.3823 9.464C20.8663 8.848 21.5383 7.532 21.5383 5.432V4.928C21.5383 1.792 19.9703 0 16.9463 0C13.9223 0 12.4103 1.736 12.4103 4.872V6.328H15.2383V4.732C15.2383 3.332 15.8823 2.8 16.8623 2.8C17.8423 2.8 18.4583 3.276 18.4583 5.04V6.132Z" fill="#494949"/>
<path d="M27.8799 0.223999H23.5959V19.824H26.2839V5.964L28.5799 19.824H31.4919L33.6199 5.768V19.824H36.5319V0.223999H32.2479L30.1479 14.14L27.8799 0.223999Z" fill="#494949"/>
<path d="M45.6043 0.223999H41.0963L37.9603 19.824H40.7883L41.3203 16.268H45.1003L45.6323 19.824H48.7403L45.6043 0.223999ZM43.1963 3.696L44.6803 13.608H41.7123L43.1963 3.696Z" fill="#494949"/>
<path d="M56.1107 6.132C56.1107 7.7 55.4107 8.204 54.2627 8.204H53.3387V11.004H54.0947C55.4947 11.004 56.1107 11.676 56.1107 13.496V15.036C56.1107 16.772 55.4947 17.248 54.5147 17.248C53.5347 17.248 52.9187 16.716 52.9187 15.316V12.964H50.0067V15.12C50.0067 18.256 51.5747 20.048 54.5987 20.048C57.6227 20.048 59.1907 18.256 59.1907 15.12V13.58C59.1907 11.592 58.5747 10.136 57.0347 9.464C58.5187 8.848 59.1907 7.532 59.1907 5.432V4.928C59.1907 1.792 57.6227 0 54.5987 0C51.5747 0 50.0627 1.736 50.0627 4.872V6.328H52.8907V4.732C52.8907 3.332 53.5347 2.8 54.5147 2.8C55.4947 2.8 56.1107 3.276 56.1107 5.04V6.132Z" fill="#494949"/>
<path d="M64.3562 11.424H67.8562V19.824H70.9922V0.223999H67.8562V8.624H64.3562V0.223999H61.2762V19.824H64.3562V11.424Z" fill="#494949"/>
<path d="M80.0575 0.223999H75.5495L72.4135 19.824H75.2415L75.7735 16.268H79.5535L80.0855 19.824H83.1935L80.0575 0.223999ZM77.6495 3.696L79.1335 13.608H76.1655L77.6495 3.696Z" fill="#494949"/>
<path d="M87.2038 19.824C87.3718 19.32 87.4838 19.012 87.4838 17.416V14.336C87.4838 12.516 88.0998 11.844 89.4998 11.844H90.5638V19.824H93.6438V0.223999H88.9958C85.8038 0.223999 84.4318 1.708 84.4318 4.732V6.272C84.4318 8.288 85.0758 9.604 86.4478 10.248C84.9078 10.892 84.4038 12.376 84.4038 14.42V17.444C84.4038 18.396 84.3758 19.096 84.0678 19.824H87.2038ZM90.5638 3.024V9.044H89.3598C88.2118 9.044 87.5118 8.54 87.5118 6.972V5.04C87.5118 3.64 87.9878 3.024 89.0798 3.024H90.5638Z" fill="#494949"/>
<path d="M5.65598 28.224H1.11998V47.824H4.19998V40.46H5.65598C8.73598 40.46 10.248 38.752 10.248 35.616V33.068C10.248 29.932 8.73598 28.224 5.65598 28.224ZM5.65598 31.024C6.63598 31.024 7.16798 31.472 7.16798 32.872V35.812C7.16798 37.212 6.63598 37.66 5.65598 37.66H4.19998V31.024H5.65598Z" fill="#494949"/>
<path d="M14.7547 31.024H20.0747V28.224H11.6747V47.824H20.0747V45.024H14.7547V39.284H18.9827V36.484H14.7547V31.024Z" fill="#494949"/>
<path d="M27.9193 34.132C27.9193 35.7 27.2193 36.204 26.0713 36.204H25.1473V39.004H25.9033C27.3033 39.004 27.9193 39.676 27.9193 41.496V43.036C27.9193 44.772 27.3033 45.248 26.3233 45.248C25.3433 45.248 24.7273 44.716 24.7273 43.316V40.964H21.8153V43.12C21.8153 46.256 23.3833 48.048 26.4073 48.048C29.4313 48.048 30.9993 46.256 30.9993 43.12V41.58C30.9993 39.592 30.3833 38.136 28.8433 37.464C30.3273 36.848 30.9993 35.532 30.9993 33.432V32.928C30.9993 29.792 29.4313 28 26.4073 28C23.3833 28 21.8713 29.736 21.8713 32.872V34.328H24.6993V32.732C24.6993 31.332 25.3433 30.8 26.3233 30.8C27.3033 30.8 27.9193 31.276 27.9193 33.04V34.132Z" fill="#494949"/>
<path d="M40.1128 47.824H43.2768L38.9928 36.96L43.2768 28.224H40.1968L36.1648 36.764V28.224H33.0848V47.824H36.1648V41.804L37.1168 40.012L40.1128 47.824Z" fill="#494949"/>
<path d="M51.5106 28.224H47.0026L43.8666 47.824H46.6946L47.2266 44.268H51.0066L51.5386 47.824H54.6466L51.5106 28.224ZM49.1026 31.696L50.5866 41.608H47.6186L49.1026 31.696Z" fill="#494949"/>
</svg>
