<svg width="94" height="48" viewBox="0 0 94 48" fill="none" xmlns="http://www.w3.org/2000/svg">
<path d="M7.6984 0.223775H3.15832L0 19.8042H2.84812L3.38391 16.2517H7.19081L7.72659 19.8042H10.8567L7.6984 0.223775ZM5.27326 3.69231L6.76782 13.5944H3.7787L5.27326 3.69231Z" fill="white"/>
<path d="M18.2795 6.12587C18.2795 7.69231 17.5745 8.1958 16.4184 8.1958H15.4878V10.993H16.2492C17.6591 10.993 18.2795 11.6643 18.2795 13.4825V15.021C18.2795 16.7552 17.6591 17.2308 16.6721 17.2308C15.6852 17.2308 15.0648 16.6993 15.0648 15.3007V12.951H12.1321V15.1049C12.1321 18.2378 13.7112 20.028 16.7567 20.028C19.8023 20.028 21.3814 18.2378 21.3814 15.1049V13.5664C21.3814 11.5804 20.761 10.1259 19.2101 9.45455C20.7046 8.83916 21.3814 7.52448 21.3814 5.42657V4.92308C21.3814 1.79021 19.8023 0 16.7567 0C13.7112 0 12.1885 1.73426 12.1885 4.86713V6.32168H15.0366V4.72727C15.0366 3.32867 15.6852 2.7972 16.6721 2.7972C17.6591 2.7972 18.2795 3.27273 18.2795 5.03497V6.12587Z" fill="white"/>
<path d="M27.7681 0.223775H23.4536V19.8042H26.1608V5.95804L28.4731 19.8042H31.4058L33.549 5.76224V19.8042H36.4817V0.223775H32.1672L30.0522 14.1259L27.7681 0.223775Z" fill="white"/>
<path d="M45.6187 0.223775H41.0786L37.9203 19.8042H40.7684L41.3042 16.2517H45.1111L45.6469 19.8042H48.777L45.6187 0.223775ZM43.1935 3.69231L44.6881 13.5944H41.699L43.1935 3.69231Z" fill="white"/>
<path d="M56.1998 6.12587C56.1998 7.69231 55.4948 8.1958 54.3386 8.1958H53.4081V10.993H54.1694C55.5794 10.993 56.1998 11.6643 56.1998 13.4825V15.021C56.1998 16.7552 55.5794 17.2308 54.5924 17.2308C53.6055 17.2308 52.9851 16.6993 52.9851 15.3007V12.951H50.0523V15.1049C50.0523 18.2378 51.6315 20.028 54.677 20.028C57.7225 20.028 59.3017 18.2378 59.3017 15.1049V13.5664C59.3017 11.5804 58.6813 10.1259 57.1304 9.45455C58.6249 8.83916 59.3017 7.52448 59.3017 5.42657V4.92308C59.3017 1.79021 57.7225 0 54.677 0C51.6315 0 50.1087 1.73426 50.1087 4.86713V6.32168H52.9569V4.72727C52.9569 3.32867 53.6055 2.7972 54.5924 2.7972C55.5794 2.7972 56.1998 3.27273 56.1998 5.03497V6.12587Z" fill="white"/>
<path d="M64.504 11.4126H68.0289V19.8042H71.1872V0.223775H68.0289V8.61539H64.504V0.223775H61.4021V19.8042H64.504V11.4126Z" fill="white"/>
<path d="M80.317 0.223775H75.7769L72.6186 19.8042H75.4667L76.0025 16.2517H79.8094L80.3452 19.8042H83.4753L80.317 0.223775ZM77.8918 3.69231L79.3864 13.5944H76.3973L77.8918 3.69231Z" fill="white"/>
<path d="M87.5142 19.8042C87.6834 19.3007 87.7962 18.993 87.7962 17.3986V14.3217C87.7962 12.5035 88.4165 11.8322 89.8265 11.8322H90.8981V19.8042H94V0.223775H89.3189C86.1042 0.223775 84.7225 1.70629 84.7225 4.72727V6.26573C84.7225 8.27972 85.371 9.59441 86.7528 10.2378C85.2018 10.8811 84.6943 12.3636 84.6943 14.4056V17.4266C84.6943 18.3776 84.666 19.0769 84.3559 19.8042H87.5142ZM90.8981 3.02098V9.03496H89.6855C88.5293 9.03496 87.8244 8.53147 87.8244 6.96503V5.03497C87.8244 3.63636 88.3037 3.02098 89.4035 3.02098H90.8981Z" fill="white"/>
<path d="M5.38606 28.1958H0.817778V47.7762H3.9197V40.4196H5.38606C8.48797 40.4196 10.0107 38.7133 10.0107 35.5804V33.035C10.0107 29.9021 8.48797 28.1958 5.38606 28.1958ZM5.38606 30.993C6.37303 30.993 6.90882 31.4406 6.90882 32.8392V35.7762C6.90882 37.1748 6.37303 37.6224 5.38606 37.6224H3.9197V30.993H5.38606Z" fill="white"/>
<path d="M14.5495 30.993H19.9073V28.1958H11.4476V47.7762H19.9073V44.979H14.5495V39.2448H18.8076V36.4476H14.5495V30.993Z" fill="white"/>
<path d="M27.8078 34.0979C27.8078 35.6643 27.1028 36.1678 25.9466 36.1678H25.016V38.965H25.7774C27.1874 38.965 27.8078 39.6364 27.8078 41.4545V42.993C27.8078 44.7273 27.1874 45.2028 26.2004 45.2028C25.2134 45.2028 24.5931 44.6713 24.5931 43.2727V40.9231H21.6603V43.0769C21.6603 46.2098 23.2395 48 26.285 48C29.3305 48 30.9097 46.2098 30.9097 43.0769V41.5385C30.9097 39.5524 30.2893 38.0979 28.7383 37.4266C30.2329 36.8112 30.9097 35.4965 30.9097 33.3986V32.8951C30.9097 29.7622 29.3305 27.972 26.285 27.972C23.2395 27.972 21.7167 29.7063 21.7167 32.8392V34.2937H24.5649V32.6993C24.5649 31.3007 25.2134 30.7692 26.2004 30.7692C27.1874 30.7692 27.8078 31.2448 27.8078 33.007V34.0979Z" fill="white"/>
<path d="M40.0881 47.7762H43.2746L38.9601 36.9231L43.2746 28.1958H40.1727L36.112 36.7273V28.1958H33.0101V47.7762H36.112V41.7622L37.0708 39.972L40.0881 47.7762Z" fill="white"/>
<path d="M51.567 28.1958H47.0269L43.8686 47.7762H46.7167L47.2525 44.2238H51.0594L51.5952 47.7762H54.7253L51.567 28.1958ZM49.1418 31.6643L50.6364 41.5664H47.6473L49.1418 31.6643Z" fill="white"/>
</svg>
