<svg width="30" height="32" viewBox="0 0 30 32" fill="none" xmlns="http://www.w3.org/2000/svg">
<path d="M21.0286 13.75C21.0286 13.0596 20.469 12.5 19.7786 12.5H6.90365C6.21328 12.5 5.65366 13.0596 5.65366 13.75C5.65366 14.4404 6.21328 15 6.90365 15H19.7786C20.469 15 21.0286 14.4404 21.0286 13.75Z" fill="#FF611D"/>
<path d="M6.90366 17.5C6.21328 17.5 5.65366 18.0596 5.65366 18.75C5.65366 19.4404 6.21328 20 6.90366 20H14.7231C15.4135 20 15.9731 19.4404 15.9731 18.75C15.9731 18.0596 15.4135 17.5 14.7231 17.5H6.90366Z" fill="#FF611D"/>
<path d="M9.84118 29.5H5.66061C4.28211 29.5 3.16061 28.3785 3.16061 27V5C3.16061 3.6215 4.28211 2.5 5.66061 2.5H21.0287C22.4072 2.5 23.5287 3.6215 23.5287 5V12.6875C23.5287 13.3779 24.0883 13.9375 24.7787 13.9375C25.4691 13.9375 26.0287 13.3779 26.0287 12.6875V5C26.0287 2.243 23.7857 0 21.0287 0H5.66061C2.90361 0 0.660614 2.243 0.660614 5V27C0.660614 29.757 2.90361 32 5.66061 32H9.84118C10.5316 32 11.0912 31.4404 11.0912 30.75C11.0912 30.0596 10.5316 29.5 9.84118 29.5Z" fill="#FF611D"/>
<path d="M28.2428 18.0982C26.7806 16.6361 24.4016 16.6361 22.9404 18.0972L16.0777 24.9447C15.932 25.0902 15.8245 25.2693 15.7646 25.4663L14.2701 30.3866C14.1376 30.8228 14.253 31.2965 14.5714 31.6228C14.8099 31.8673 15.1339 32 15.4662 32C15.5774 32 15.6896 31.9851 15.7998 31.9545L20.8451 30.557C21.0528 30.4995 21.242 30.3893 21.3945 30.237L28.2428 23.4016C29.7049 21.9395 29.7049 19.5605 28.2428 18.0982ZM19.861 28.2355L17.3228 28.9386L18.0656 26.493L22.6961 21.8727L24.4643 23.6409L19.861 28.2355ZM26.4759 21.6331L26.2337 21.8748L24.4659 20.107L24.7073 19.8661C25.1947 19.3787 25.9877 19.3787 26.4751 19.8661C26.9624 20.3535 26.9624 21.1465 26.4759 21.6331Z" fill="#FF611D"/>
<path d="M19.7786 7.5H6.90365C6.21328 7.5 5.65366 8.05963 5.65366 8.75C5.65366 9.44037 6.21328 10 6.90365 10H19.7786C20.469 10 21.0286 9.44037 21.0286 8.75C21.0286 8.05963 20.469 7.5 19.7786 7.5Z" fill="#FF611D"/>
</svg>
