<svg width="28" height="32" viewBox="0 0 28 32" fill="none" xmlns="http://www.w3.org/2000/svg">
<path d="M27.2313 5.78368L14.4438 0.107238C14.1201 -0.0364496 13.7505 -0.0358246 13.4273 0.109113L0.764502 5.78555C0.31594 5.98668 0.0272522 6.43243 0.0272522 6.92393V16.7797C0.0272522 20.5044 1.49919 24.312 4.06569 27.2261C5.35663 28.6918 6.84481 29.8517 8.48906 30.6734C10.2503 31.5537 12.1044 32 14 32C16.6543 32 19.2377 31.1409 21.471 29.5156C22.0281 29.1101 22.1511 28.3298 21.7456 27.7727C21.3401 27.2156 20.5598 27.0927 20.0028 27.4981C18.1989 28.8109 16.1232 29.5049 14.0001 29.5049C7.99313 29.5049 2.5225 23.4396 2.5225 16.7797V7.73186L13.9402 2.61361L25.4776 7.73511V16.7797C25.4776 19.077 24.8177 21.4019 23.5691 23.5029C23.2171 24.0952 23.4119 24.8608 24.0042 25.2128C24.5966 25.5649 25.3621 25.37 25.7141 24.7777C27.1918 22.2911 27.9728 19.5255 27.9728 16.7797V6.92393C27.9727 6.43074 27.6821 5.9838 27.2313 5.78368Z" fill="#FF611D"/>
<path d="M19.5353 10.5607L13.386 19.1502C13.2181 19.345 13.0077 19.387 12.8949 19.3945C12.7789 19.4022 12.5567 19.3875 12.3606 19.2038L8.38638 15.3254C7.89326 14.8442 7.10338 14.8538 6.6222 15.347C6.14101 15.8401 6.15063 16.6299 6.64376 17.1112L10.6248 20.9962C10.6285 20.9998 10.6323 21.0034 10.636 21.0069C11.2329 21.5751 12.0295 21.8911 12.8492 21.8911C12.9196 21.8912 12.9903 21.8889 13.0609 21.8841C13.9538 21.8246 14.7873 21.3904 15.3478 20.6928C15.3623 20.6748 15.3763 20.6564 15.3898 20.6375L21.5641 12.0132C21.9651 11.4529 21.8361 10.6736 21.2759 10.2725C20.7157 9.87141 19.9363 10.0004 19.5353 10.5607Z" fill="#FF611D"/>
</svg>
