<svg width="26" height="32" viewBox="0 0 26 32" fill="none" xmlns="http://www.w3.org/2000/svg">
<path d="M24.5625 19.125C25.2529 19.125 25.8125 18.5654 25.8125 17.875V5C25.8125 2.243 23.5695 0 20.8125 0H5.1875C2.4305 0 0.1875 2.243 0.1875 5V27C0.1875 29.757 2.4305 32 5.1875 32H20.8125C23.5695 32 25.8125 29.757 25.8125 27V24.125C25.8125 23.4346 25.2529 22.875 24.5625 22.875H20.8125V22.25C20.8125 21.5596 20.2529 21 19.5625 21C18.8721 21 18.3125 21.5596 18.3125 22.25V22.875H16.4375V22.25C16.4375 21.5596 15.8779 21 15.1875 21C14.4971 21 13.9375 21.5596 13.9375 22.25V22.875H2.6875V17.25H5.25V17.875C5.25 18.5654 5.80963 19.125 6.5 19.125C7.19037 19.125 7.75 18.5654 7.75 17.875V17.25H9.625V17.875C9.625 18.5654 10.1846 19.125 10.875 19.125C11.5654 19.125 12.125 18.5654 12.125 17.875V17.25H18.3125V17.875C18.3125 18.5654 18.8721 19.125 19.5625 19.125C20.2529 19.125 20.8125 18.5654 20.8125 17.875V17.25H23.3125V17.875C23.3125 18.5654 23.8721 19.125 24.5625 19.125ZM13.9375 25.375V26C13.9375 26.6904 14.4971 27.25 15.1875 27.25C15.8779 27.25 16.4375 26.6904 16.4375 26V25.375H18.3125V26C18.3125 26.6904 18.8721 27.25 19.5625 27.25C20.2529 27.25 20.8125 26.6904 20.8125 26V25.375H23.3125V27C23.3125 28.3785 22.191 29.5 20.8125 29.5H5.1875C3.809 29.5 2.6875 28.3785 2.6875 27V25.375H13.9375ZM2.6875 5C2.6875 3.6215 3.809 2.5 5.1875 2.5H20.8125C22.191 2.5 23.3125 3.6215 23.3125 5V6.5625H20.8125V5.9375C20.8125 5.24713 20.2529 4.6875 19.5625 4.6875C18.8721 4.6875 18.3125 5.24713 18.3125 5.9375V6.5625H16.4375V5.9375C16.4375 5.24713 15.8779 4.6875 15.1875 4.6875C14.4971 4.6875 13.9375 5.24713 13.9375 5.9375V6.5625H7.75V5.9375C7.75 5.24713 7.19037 4.6875 6.5 4.6875C5.80963 4.6875 5.25 5.24713 5.25 5.9375V6.5625H2.6875V5ZM20.8125 14.75V14.125C20.8125 13.4346 20.2529 12.875 19.5625 12.875C18.8721 12.875 18.3125 13.4346 18.3125 14.125V14.75H12.125V14.125C12.125 13.4346 11.5654 12.875 10.875 12.875C10.1846 12.875 9.625 13.4346 9.625 14.125V14.75H7.75V14.125C7.75 13.4346 7.19037 12.875 6.5 12.875C5.80963 12.875 5.25 13.4346 5.25 14.125V14.75H2.6875V9.0625H5.25V9.6875C5.25 10.3779 5.80963 10.9375 6.5 10.9375C7.19037 10.9375 7.75 10.3779 7.75 9.6875V9.0625H13.9375V9.6875C13.9375 10.3779 14.4971 10.9375 15.1875 10.9375C15.8779 10.9375 16.4375 10.3779 16.4375 9.6875V9.0625H18.3125V9.6875C18.3125 10.3779 18.8721 10.9375 19.5625 10.9375C20.2529 10.9375 20.8125 10.3779 20.8125 9.6875V9.0625H23.3125V14.75H20.8125Z" fill="#FF611D"/>
</svg>
