<svg width="32" height="32" viewBox="0 0 32 32" fill="none" xmlns="http://www.w3.org/2000/svg">
<path d="M31.8719 20.6736C31.8689 20.6248 31.8638 20.5757 31.8548 20.5263L29.4798 7.46381C29.473 7.4265 29.4646 7.3895 29.4544 7.35294C29.1753 6.34844 28.6003 5.46981 27.7915 4.812C27.7113 4.74675 27.6233 4.69175 27.5296 4.64819L20.4477 1.3575C18.5364 0.469437 16.4122 0 14.3048 0H1.25C0.559625 0 0 0.559625 0 1.25C0 1.94037 0.559625 2.5 1.25 2.5H14.3048C16.0508 2.5 17.8108 2.88894 19.3943 3.62469L26.3204 6.84312C26.6564 7.14862 26.9004 7.53594 27.0312 7.97269L28.2277 14.5529C27.2248 13.7723 26.0659 13.1833 24.8065 12.8407C24.3948 10.7321 24.3362 10.5561 24.3107 10.4797C24.0925 9.82469 23.3847 9.47087 22.7296 9.68913C22.0866 9.9035 21.7337 10.5899 21.9277 11.2346C21.9617 11.3681 22.0683 11.8856 22.1911 12.5009C19.7297 12.5156 17.4131 13.4456 15.6496 15.0706C15.4738 14.2264 15.3038 13.4391 15.1574 12.7822C15.5837 12.2664 16.4959 11.3374 17.8931 10.7905C18.5359 10.5389 18.8531 9.81381 18.6015 9.17094C18.3499 8.52806 17.6249 8.21075 16.9819 8.4625C14.1787 9.55962 12.805 11.7521 12.7479 11.8449C12.5763 12.1238 12.5209 12.4589 12.5938 12.7782C13.4641 16.5916 14.4375 21.7199 14.4375 22.8751C14.4375 23.5526 13.8507 24.1251 13.1562 24.1251C12.7343 24.1251 12.3491 23.918 12.1159 23.5685L6.74925 12.4866C6.71912 12.4244 6.68394 12.3648 6.644 12.3085C5.98006 11.3717 4.89819 10.8125 3.75 10.8125H1.25C0.559625 10.8125 0 11.3721 0 12.0625C0 12.7529 0.559625 13.3125 1.25 13.3125H3.75C4.06094 13.3125 4.35544 13.4514 4.55331 13.6878L9.89706 24.7224C9.91488 24.7592 9.93444 24.7951 9.95575 24.8299C10.6433 25.954 11.8398 26.625 13.1562 26.625C13.281 26.625 13.4042 26.6186 13.5258 26.6069C15.1697 29.9046 18.5225 32 22.25 32C23.8837 32 25.5006 31.5876 26.9257 30.8075C27.5312 30.4761 27.7534 29.7164 27.4219 29.1108C27.0905 28.5053 26.3309 28.2831 25.7253 28.6146C24.6671 29.1939 23.4654 29.5 22.25 29.5C19.5034 29.5 17.0304 27.9701 15.7959 25.5564C16.4996 24.875 16.9375 23.925 16.9375 22.875C16.9375 22.0394 16.6406 20.1747 16.2631 18.1607C17.6189 16.1784 19.8435 15 22.25 15C26.2477 15 29.5 18.2523 29.5 22.25C29.5 23.0164 29.3813 23.7705 29.1472 24.4914C28.934 25.1481 29.2934 25.8531 29.95 26.0664C30.0783 26.108 30.2084 26.1278 30.3363 26.1278C30.8633 26.1278 31.3534 25.7918 31.525 25.2635C31.8402 24.2929 32 23.279 32 22.25C32 21.7134 31.9558 21.187 31.8719 20.6736Z" fill="#FF611D"/>
<path d="M22.5784 26.2352C23.2688 26.2352 23.8284 25.6756 23.8284 24.9852V19.3602C23.8284 18.8856 23.5596 18.4519 23.1345 18.2407C22.7094 18.0297 22.2014 18.0775 21.8232 18.3642L19.8232 19.8805C19.2731 20.2976 19.1652 21.0817 19.5823 21.6318C19.9981 22.1801 20.7785 22.2892 21.3284 21.8766V24.9853C21.3284 25.6756 21.888 26.2352 22.5784 26.2352Z" fill="#FF611D"/>
</svg>
