<svg width="32" height="32" viewBox="0 0 32 32" fill="none" xmlns="http://www.w3.org/2000/svg">
<path d="M31.9189 27.4201C31.7782 26.7443 31.1162 26.3106 30.4404 26.4512C29.7645 26.5919 29.3307 27.2539 29.4714 27.9297C29.5525 28.319 29.456 28.7181 29.2067 29.0246C29.0622 29.2021 28.7403 29.5 28.2067 29.5H22.5625C21.8722 29.5 21.3125 30.0596 21.3125 30.75C21.3125 31.4404 21.8722 32 22.5625 32H28.2067C29.3523 32 30.4237 31.4904 31.1462 30.6019C31.8723 29.709 32.154 28.5493 31.9189 27.4201Z" fill="#FF611D"/>
<path d="M17.2695 17.0481C21.3762 17.4263 25.1118 19.6274 27.4384 23.0973C27.8228 23.6707 28.5994 23.8239 29.1727 23.4394C29.7462 23.0549 29.8993 22.2784 29.5149 21.7051C27.4637 18.6459 24.4852 16.4219 21.0891 15.3043C23.1588 13.7525 24.5004 11.28 24.5004 8.5C24.5004 3.81306 20.6872 0 16.0004 0C11.3135 0 7.50037 3.81306 7.50037 8.5C7.50037 11.2818 8.84362 13.7558 10.9156 15.3073C9.01737 15.9322 7.23612 16.904 5.67725 18.1862C2.819 20.5373 0.831685 23.8166 0.0814977 27.4201C-0.153627 28.5493 0.12806 29.709 0.854185 30.6019C1.57669 31.4904 2.64812 32 3.79369 32H9.25037C9.94075 32 10.5004 31.4404 10.5004 30.75C10.5004 30.0596 9.94075 29.5 9.25037 29.5H3.79356C3.25994 29.5 2.93806 29.2022 2.79362 29.0246C2.54431 28.718 2.44781 28.319 2.52887 27.9297C3.75287 22.0504 8.71512 17.6671 14.6031 17.0619L12.2167 27.9187C12.1253 28.3351 12.2523 28.7694 12.5537 29.0709L15.0539 31.5713C15.2882 31.8058 15.6062 31.9375 15.9379 31.9375C16.2694 31.9375 16.5874 31.8057 16.8218 31.5713L19.3217 29.0709C19.6231 28.7694 19.7501 28.3351 19.6586 27.9188L17.2695 17.0481ZM10.0004 8.5C10.0004 5.19156 12.6919 2.5 16.0004 2.5C19.3088 2.5 22.0004 5.19156 22.0004 8.5C22.0004 11.7086 19.4688 14.3368 16.2982 14.4926C16.1991 14.4908 16.0998 14.4896 16.0004 14.4896C15.9028 14.4896 15.8054 14.4911 15.7079 14.4928C12.5348 14.3397 10.0004 11.7104 10.0004 8.5ZM15.9378 28.9196L14.8055 27.7871L15.9378 22.6355L17.07 27.7871L15.9378 28.9196Z" fill="#FF611D"/>
</svg>
