<svg width="28" height="40" viewBox="0 0 28 40" fill="none" xmlns="http://www.w3.org/2000/svg">
<path d="M0 14C0 6.26801 6.26801 0 14 0C21.732 0 28 6.26801 28 14V26C28 33.732 21.732 40 14 40C6.26801 40 0 33.732 0 26V14Z" fill="black" fill-opacity="0.8"/>
<path d="M7.99969 20.7024L16.0099 28.7124C16.1952 28.8979 16.4425 29 16.7062 29C16.9699 29 17.2172 28.8979 17.4025 28.7124L17.9924 28.1227C18.3762 27.7384 18.3762 27.1138 17.9924 26.7301L11.266 20.0037L17.9999 13.2699C18.1851 13.0845 18.2874 12.8373 18.2874 12.5737C18.2874 12.3099 18.1851 12.0627 17.9999 11.8772L17.41 11.2876C17.2245 11.1021 16.9774 11 16.7137 11C16.45 11 16.2026 11.1021 16.0174 11.2876L7.99969 19.305C7.81399 19.491 7.71199 19.7393 7.71257 20.0033C7.71199 20.2683 7.81399 20.5165 7.99969 20.7024Z" fill="#FF611D"/>
</svg>
