<svg width="24" height="24" viewBox="0 0 24 24" fill="none" xmlns="http://www.w3.org/2000/svg">
<path d="M12.003 0H11.997C5.3805 0 0 5.382 0 12C0 14.625 0.846 17.058 2.2845 19.0335L0.789 23.4915L5.4015 22.017C7.299 23.274 9.5625 24 12.003 24C18.6195 24 24 18.6165 24 12C24 5.3835 18.6195 0 12.003 0Z" fill="#4CAF50"/>
<path d="M18.9855 16.9455C18.696 17.763 17.547 18.441 16.6305 18.639C16.0035 18.7725 15.1845 18.879 12.4275 17.736C8.90101 16.275 6.63002 12.6915 6.45302 12.459C6.28352 12.2265 5.02802 10.5615 5.02802 8.83948C5.02802 7.11748 5.90252 6.27898 6.25502 5.91898C6.54452 5.62348 7.02301 5.48848 7.48201 5.48848C7.63051 5.48848 7.76401 5.49598 7.88402 5.50198C8.23652 5.51698 8.41351 5.53798 8.64601 6.09448C8.93551 6.79198 9.64051 8.51398 9.72451 8.69098C9.81001 8.86798 9.89551 9.10798 9.77552 9.34048C9.66301 9.58048 9.56401 9.68698 9.38701 9.89098C9.21001 10.095 9.04201 10.251 8.86501 10.47C8.70301 10.6605 8.52001 10.8645 8.72401 11.217C8.92801 11.562 9.63301 12.7125 10.671 13.6365C12.0105 14.829 13.0965 15.21 13.485 15.372C13.7745 15.492 14.1195 15.4635 14.331 15.2385C14.5995 14.949 14.931 14.469 15.2685 13.9965C15.5085 13.6575 15.8115 13.6155 16.1295 13.7355C16.4535 13.848 18.168 14.6955 18.5205 14.871C18.873 15.048 19.1055 15.132 19.191 15.2805C19.275 15.429 19.275 16.1265 18.9855 16.9455Z" fill="#FAFAFA"/>
</svg>
